<svg width="34" height="34" viewBox="0 0 34 34" fill="none" xmlns="http://www.w3.org/2000/svg">
<path d="M2.125 29.75C2.125 29.75 0 29.75 0 27.625C0 25.5 2.125 19.125 12.75 19.125C23.375 19.125 25.5 25.5 25.5 27.625C25.5 29.75 23.375 29.75 23.375 29.75H2.125ZM12.75 17C14.4408 17 16.0623 16.3284 17.2578 15.1328C18.4534 13.9373 19.125 12.3158 19.125 10.625C19.125 8.93425 18.4534 7.31274 17.2578 6.11719C16.0623 4.92165 14.4408 4.25 12.75 4.25C11.0592 4.25 9.43774 4.92165 8.24219 6.11719C7.04665 7.31274 6.375 8.93425 6.375 10.625C6.375 12.3158 7.04665 13.9373 8.24219 15.1328C9.43774 16.3284 11.0592 17 12.75 17Z" fill="#584D6D"/>
<path fill-rule="evenodd" clip-rule="evenodd" d="M28.6875 10.625C28.9693 10.625 29.2395 10.7369 29.4388 10.9362C29.6381 11.1355 29.75 11.4057 29.75 11.6875V14.875H32.9375C33.2193 14.875 33.4895 14.9869 33.6888 15.1862C33.8881 15.3855 34 15.6557 34 15.9375C34 16.2193 33.8881 16.4895 33.6888 16.6888C33.4895 16.8881 33.2193 17 32.9375 17H29.75V20.1875C29.75 20.4693 29.6381 20.7395 29.4388 20.9388C29.2395 21.1381 28.9693 21.25 28.6875 21.25C28.4057 21.25 28.1355 21.1381 27.9362 20.9388C27.7369 20.7395 27.625 20.4693 27.625 20.1875V17H24.4375C24.1557 17 23.8855 16.8881 23.6862 16.6888C23.4869 16.4895 23.375 16.2193 23.375 15.9375C23.375 15.6557 23.4869 15.3855 23.6862 15.1862C23.8855 14.9869 24.1557 14.875 24.4375 14.875H27.625V11.6875C27.625 11.4057 27.7369 11.1355 27.9362 10.9362C28.1355 10.7369 28.4057 10.625 28.6875 10.625Z" fill="#584D6D"/>
</svg>
