<svg width="16" height="16" viewBox="0 0 16 16" fill="none" xmlns="http://www.w3.org/2000/svg">
<g clip-path="url(#clip0_55_32)">
<path d="M14.849 6.428C15.409 6.708 16 7.213 16 8C16 8.787 15.408 9.292 14.849 9.572C14.27 9.861 13.569 10 13 10L9.309 10L6.724 15.17C6.59951 15.4194 6.408 15.6291 6.17096 15.7757C5.93392 15.9223 5.66072 16 5.382 16H4C3.92742 16 3.85572 15.9841 3.78987 15.9536C3.72403 15.9231 3.66562 15.8786 3.61871 15.8232C3.5718 15.7678 3.53751 15.7029 3.51822 15.6329C3.49892 15.5629 3.4951 15.4896 3.507 15.418L4.425 9.911L2.172 9.536L0.854 10.854C0.784071 10.9241 0.694899 10.9719 0.597791 10.9912C0.500682 11.0106 0.40001 11.0007 0.308537 10.9628C0.217063 10.9249 0.138908 10.8606 0.0839796 10.7783C0.0290511 10.6959 -0.000177165 10.599 0 10.5L0 5.5C-0.000177165 5.40098 0.0290511 5.30414 0.0839796 5.22175C0.138908 5.13936 0.217063 5.07513 0.308537 5.03722C0.40001 4.9993 0.500682 4.9894 0.597791 5.00876C0.694899 5.02813 0.784071 5.07589 0.854 5.146L2.172 6.465L4.425 6.089L3.507 0.582C3.4951 0.510403 3.49892 0.437073 3.51822 0.367104C3.53751 0.297135 3.5718 0.232204 3.61871 0.176823C3.66562 0.121442 3.72403 0.0769381 3.78987 0.0464029C3.85572 0.0158677 3.92742 3.341e-05 4 0L5.382 0C5.66072 9.41502e-06 5.93392 0.0776726 6.17096 0.224278C6.408 0.370884 6.59951 0.580633 6.724 0.83L9.309 6H13C13.568 6 14.271 6.14 14.849 6.428ZM14.401 7.322C13.98 7.111 13.431 7 13 7H9C8.90722 7 8.81627 6.97418 8.73733 6.92544C8.65839 6.87669 8.59456 6.80695 8.553 6.724L5.829 1.276C5.78744 1.19305 5.72361 1.12331 5.64467 1.07456C5.56573 1.02582 5.47478 1 5.382 1L4.59 1L5.493 6.418C5.51471 6.5486 5.48373 6.68247 5.40687 6.79026C5.33001 6.89805 5.21354 6.97096 5.083 6.993L2.083 7.493C2.00427 7.50625 1.92352 7.50045 1.84749 7.47609C1.77146 7.45174 1.70237 7.40953 1.646 7.353L1 6.708V9.294L1.646 8.647C1.70227 8.59062 1.77119 8.5485 1.84703 8.52415C1.92287 8.4998 2.00343 8.49392 2.082 8.507L5.082 9.007C5.14683 9.01779 5.20889 9.04126 5.26464 9.07605C5.32039 9.11085 5.36874 9.1563 5.40691 9.20979C5.44508 9.26329 5.47234 9.32379 5.48711 9.38783C5.50188 9.45187 5.50388 9.51819 5.493 9.583L4.59 15H5.382C5.47478 15 5.56573 14.9742 5.64467 14.9254C5.72361 14.8767 5.78744 14.8069 5.829 14.724L8.553 9.276C8.59456 9.19305 8.65839 9.12331 8.73733 9.07456C8.81627 9.02582 8.90722 9 9 9L13 9C13.432 9 13.979 8.89 14.401 8.678C14.841 8.458 15 8.213 15 8C15 7.787 14.842 7.542 14.401 7.322Z" fill="#5A3070"/>
</g>
<defs>
<clipPath id="clip0_55_32">
<rect width="16" height="16" fill="white" transform="matrix(0 1 -1 0 16 0)"/>
</clipPath>
</defs>
</svg>
