<svg width="16" height="16" viewBox="0 0 16 16" fill="none" xmlns="http://www.w3.org/2000/svg">
<path d="M4.6135 13.0517H14.2801C13.9863 12.8561 13.7327 12.5082 13.5136 12.0689C12.6291 10.2999 12.3146 7.03704 12.3146 6.17219C12.3146 5.91273 12.2949 5.65852 12.2556 5.40955L11.3338 6.3314C11.3534 7.02721 11.4881 8.44831 11.7829 9.84975C11.9411 10.6035 12.1534 11.3888 12.4345 12.0689H5.59628L4.6135 13.0517ZM10.0984 3.3123C9.56525 2.80944 8.90214 2.46563 8.18394 2.31969L7.40067 2.15949L6.61739 2.31772C5.72858 2.49844 4.92961 2.98094 4.3559 3.68343C3.78219 4.38593 3.46904 5.26519 3.46954 6.17219C3.46954 6.78938 3.33785 8.33136 3.01844 9.84975C2.96931 10.0843 2.91493 10.3195 2.8553 10.5554L1.23077 12.1799C1.25042 12.1439 1.26975 12.1069 1.28875 12.0689C2.17129 10.2999 2.48676 7.03704 2.48676 6.17219C2.48676 3.79386 4.17714 1.80864 6.4228 1.35558C6.40908 1.21893 6.42416 1.08092 6.46706 0.950451C6.50995 0.819984 6.57972 0.699956 6.67186 0.598109C6.76399 0.496262 6.87645 0.414856 7.00198 0.359142C7.12751 0.303428 7.26333 0.274643 7.40067 0.274643C7.538 0.274643 7.67382 0.303428 7.79935 0.359142C7.92488 0.414856 8.03734 0.496262 8.12947 0.598109C8.22161 0.699956 8.29138 0.819984 8.33427 0.950451C8.37717 1.08092 8.39225 1.21893 8.37853 1.35558C9.30431 1.54231 10.1357 1.98947 10.7932 2.61747L10.0984 3.3123ZM9.36623 14.0344C9.36623 14.5557 9.15914 15.0557 8.79053 15.4243C8.42191 15.7929 7.92197 16 7.40067 16C6.87937 16 6.37942 15.7929 6.0108 15.4243C5.64219 15.0557 5.4351 14.5557 5.4351 14.0344H9.36623ZM0.152655 14.6487C0.0549118 14.7464 -2.91299e-09 14.879 0 15.0172C2.91299e-09 15.1554 0.0549118 15.288 0.152655 15.3858C0.250399 15.4835 0.382968 15.5384 0.521198 15.5384C0.659429 15.5384 0.791998 15.4835 0.889741 15.3858L15.3858 0.889741C15.4342 0.841343 15.4726 0.783887 15.4987 0.720652C15.5249 0.657418 15.5384 0.589643 15.5384 0.521198C15.5384 0.452754 15.5249 0.384979 15.4987 0.321744C15.4726 0.25851 15.4342 0.201053 15.3858 0.152655C15.3374 0.104258 15.2799 0.0658665 15.2167 0.0396739C15.1534 0.0134812 15.0857 0 15.0172 0C14.9488 0 14.881 0.0134812 14.8178 0.0396739C14.7545 0.0658665 14.6971 0.104258 14.6487 0.152655L0.152655 14.6487Z" fill="#584D6D"/>
</svg>
