<svg width="14" height="16" viewBox="0 0 14 16" fill="none" xmlns="http://www.w3.org/2000/svg">
<path d="M7 16C7.53043 16 8.03914 15.7893 8.41421 15.4142C8.78929 15.0392 9 14.5305 9 14H5C5 14.5305 5.21071 15.0392 5.58579 15.4142C5.96086 15.7893 6.46957 16 7 16ZM7 1.91802L6.203 2.07902C5.29879 2.26287 4.48594 2.75368 3.9022 3.46827C3.31846 4.18287 2.99972 5.07731 3 6.00002C3 6.62802 2.866 8.19702 2.541 9.74202C2.381 10.509 2.165 11.308 1.878 12H12.122C11.835 11.308 11.62 10.51 11.459 9.74202C11.134 8.19702 11 6.62802 11 6.00002C11 5.07748 10.6812 4.18328 10.0975 3.46889C9.51376 2.7545 8.70104 2.26384 7.797 2.08002L7 1.91802ZM13.22 12C13.443 12.447 13.701 12.801 14 13H0C0.299 12.801 0.557 12.447 0.78 12C1.68 10.2 2 6.88002 2 6.00002C2 3.58002 3.72 1.56002 6.005 1.09902C5.99104 0.959974 6.00638 0.819547 6.05003 0.686794C6.09368 0.554041 6.16467 0.43191 6.25842 0.328279C6.35217 0.224647 6.4666 0.141815 6.59433 0.085125C6.72206 0.028435 6.86026 -0.000854492 7 -0.000854492C7.13974 -0.000854492 7.27794 0.028435 7.40567 0.085125C7.5334 0.141815 7.64783 0.224647 7.74158 0.328279C7.83533 0.43191 7.90632 0.554041 7.94997 0.686794C7.99362 0.819547 8.00896 0.959974 7.995 1.09902C9.12545 1.32857 10.1418 1.94193 10.8717 2.83515C11.6016 3.72837 12.0002 4.8465 12 6.00002C12 6.88002 12.32 10.2 13.22 12Z" fill="#584D6D"/>
</svg>
