<svg width="34" height="34" viewBox="0 0 34 34" fill="none" xmlns="http://www.w3.org/2000/svg">
<g clip-path="url(#clip0_117_418)">
<path fill-rule="evenodd" clip-rule="evenodd" d="M2.125 29.75C2.125 29.75 0 29.75 0 27.625C0 25.5 2.125 19.125 12.75 19.125C23.375 19.125 25.5 25.5 25.5 27.625C25.5 29.75 23.375 29.75 23.375 29.75H2.125ZM12.75 17C14.4408 17 16.0623 16.3284 17.2578 15.1328C18.4534 13.9373 19.125 12.3158 19.125 10.625C19.125 8.93425 18.4534 7.31274 17.2578 6.11719C16.0623 4.92165 14.4408 4.25 12.75 4.25C11.0592 4.25 9.43774 4.92165 8.24219 6.11719C7.04665 7.31274 6.375 8.93425 6.375 10.625C6.375 12.3158 7.04665 13.9373 8.24219 15.1328C9.43774 16.3284 11.0592 17 12.75 17ZM25.8102 10.9352C25.9089 10.8363 26.0262 10.7578 26.1553 10.7042C26.2844 10.6507 26.4227 10.6231 26.5625 10.6231C26.7023 10.6231 26.8406 10.6507 26.9697 10.7042C27.0988 10.7578 27.2161 10.8363 27.3148 10.9352L29.75 13.3726L32.1852 10.9352C32.3848 10.7357 32.6553 10.6237 32.9375 10.6237C33.2197 10.6237 33.4902 10.7357 33.6898 10.9352C33.8893 11.1348 34.0013 11.4054 34.0013 11.6875C34.0013 11.9696 33.8893 12.2402 33.6898 12.4398L31.2524 14.875L33.6898 17.3102C33.8893 17.5098 34.0013 17.7804 34.0013 18.0625C34.0013 18.3446 33.8893 18.6152 33.6898 18.8148C33.4902 19.0143 33.2197 19.1263 32.9375 19.1263C32.6553 19.1263 32.3848 19.0143 32.1852 18.8148L29.75 16.3774L27.3148 18.8148C27.1152 19.0143 26.8446 19.1263 26.5625 19.1263C26.2804 19.1263 26.0098 19.0143 25.8102 18.8148C25.6107 18.6152 25.4987 18.3446 25.4987 18.0625C25.4987 17.7804 25.6107 17.5098 25.8102 17.3102L28.2476 14.875L25.8102 12.4398C25.7113 12.3411 25.6328 12.2238 25.5792 12.0947C25.5257 11.9656 25.4981 11.8273 25.4981 11.6875C25.4981 11.5477 25.5257 11.4094 25.5792 11.2803C25.6328 11.1512 25.7113 11.0339 25.8102 10.9352Z" fill="#584D6D"/>
</g>
<defs>
<clipPath id="clip0_117_418">
<rect width="34" height="34" fill="white"/>
</clipPath>
</defs>
</svg>
