<svg width="42" height="42" viewBox="0 0 42 42" fill="none" xmlns="http://www.w3.org/2000/svg">
<g clip-path="url(#clip0_41_9)">
<path fill-rule="evenodd" clip-rule="evenodd" d="M26.25 32.8125C26.25 33.1606 26.1117 33.4944 25.8656 33.7406C25.6194 33.9867 25.2856 34.125 24.9375 34.125H3.9375C3.5894 34.125 3.25556 33.9867 3.00942 33.7406C2.76328 33.4944 2.625 33.1606 2.625 32.8125V9.1875C2.625 8.8394 2.76328 8.50556 3.00942 8.25942C3.25556 8.01328 3.5894 7.875 3.9375 7.875H24.9375C25.2856 7.875 25.6194 8.01328 25.8656 8.25942C26.1117 8.50556 26.25 8.8394 26.25 9.1875V14.4375C26.25 14.7856 26.3883 15.1194 26.6344 15.3656C26.8806 15.6117 27.2144 15.75 27.5625 15.75C27.9106 15.75 28.2444 15.6117 28.4906 15.3656C28.7367 15.1194 28.875 14.7856 28.875 14.4375V9.1875C28.875 8.14321 28.4602 7.14169 27.7217 6.40327C26.9833 5.66484 25.9818 5.25 24.9375 5.25H3.9375C2.89321 5.25 1.89169 5.66484 1.15327 6.40327C0.414843 7.14169 0 8.14321 0 9.1875L0 32.8125C0 33.8568 0.414843 34.8583 1.15327 35.5967C1.89169 36.3352 2.89321 36.75 3.9375 36.75H24.9375C25.9818 36.75 26.9833 36.3352 27.7217 35.5967C28.4602 34.8583 28.875 33.8568 28.875 32.8125V27.5625C28.875 27.2144 28.7367 26.8806 28.4906 26.6344C28.2444 26.3883 27.9106 26.25 27.5625 26.25C27.2144 26.25 26.8806 26.3883 26.6344 26.6344C26.3883 26.8806 26.25 27.2144 26.25 27.5625V32.8125Z" fill="url(#paint0_linear_41_9)"/>
<path fill-rule="evenodd" clip-rule="evenodd" d="M41.6168 21.9293C41.739 21.8073 41.836 21.6625 41.9021 21.503C41.9683 21.3436 42.0023 21.1726 42.0023 21C42.0023 20.8274 41.9683 20.6564 41.9021 20.497C41.836 20.3375 41.739 20.1927 41.6168 20.0708L33.7418 12.1958C33.4953 11.9493 33.161 11.8109 32.8125 11.8109C32.464 11.8109 32.1297 11.9493 31.8832 12.1958C31.6368 12.4422 31.4983 12.7765 31.4983 13.125C31.4983 13.4735 31.6368 13.8078 31.8832 14.0543L37.5191 19.6875H14.4375C14.0894 19.6875 13.7556 19.8258 13.5094 20.0719C13.2633 20.3181 13.125 20.6519 13.125 21C13.125 21.3481 13.2633 21.6819 13.5094 21.9281C13.7556 22.1742 14.0894 22.3125 14.4375 22.3125H37.5191L31.8832 27.9458C31.6368 28.1922 31.4983 28.5265 31.4983 28.875C31.4983 29.2235 31.6368 29.5578 31.8832 29.8043C32.1297 30.0507 32.464 30.1892 32.8125 30.1892C33.161 30.1892 33.4953 30.0507 33.7418 29.8043L41.6168 21.9293Z" fill="url(#paint1_linear_41_9)"/>
</g>
<defs>
<linearGradient id="paint0_linear_41_9" x1="14.4375" y1="5.25" x2="14.4375" y2="36.75" gradientUnits="userSpaceOnUse">
<stop stop-color="#CBBBE8"/>
<stop offset="1" stop-color="#A48DCD"/>
</linearGradient>
<linearGradient id="paint1_linear_41_9" x1="27.5637" y1="11.8109" x2="27.5637" y2="30.1892" gradientUnits="userSpaceOnUse">
<stop stop-color="#CBBBE8"/>
<stop offset="1" stop-color="#A48DCD"/>
</linearGradient>
<clipPath id="clip0_41_9">
<rect width="42" height="42" fill="white"/>
</clipPath>
</defs>
</svg>
