<svg width="16" height="16" viewBox="0 0 16 16" fill="none" xmlns="http://www.w3.org/2000/svg">
<path d="M13.359 11.238C15.06 9.72 16 8 16 8C16 8 13 2.5 8.00002 2.5C7.03953 2.50251 6.08983 2.70266 5.21002 3.088L5.98002 3.859C6.62775 3.62425 7.31107 3.5028 8.00002 3.5C10.12 3.5 11.879 4.668 13.168 5.957C13.7891 6.58008 14.3452 7.26459 14.828 8C14.7707 8.08667 14.7057 8.18267 14.633 8.288C14.298 8.768 13.803 9.408 13.168 10.043C13.0034 10.2083 12.831 10.3703 12.651 10.529L13.359 11.238Z" fill="#584D6D"/>
<path d="M11.297 9.17587C11.5201 8.55171 11.5615 7.87701 11.4162 7.23029C11.2708 6.58356 10.9449 5.99139 10.4762 5.52269C10.0075 5.05398 9.41529 4.72801 8.76857 4.5827C8.12184 4.43738 7.44715 4.47871 6.82299 4.70187L7.64599 5.52487C8.0303 5.46986 8.42214 5.50511 8.79046 5.62783C9.15878 5.75055 9.49346 5.95736 9.76798 6.23188C10.0425 6.5064 10.2493 6.84107 10.372 7.2094C10.4947 7.57772 10.53 7.96956 10.475 8.35387L11.297 9.17587ZM8.35399 10.4749L9.17599 11.2969C8.55183 11.52 7.87714 11.5613 7.23041 11.416C6.58368 11.2707 5.99151 10.9448 5.52281 10.476C5.0541 10.0073 4.72813 9.41517 4.58282 8.76845C4.43751 8.12172 4.47883 7.44702 4.70199 6.82287L5.52499 7.64587C5.46998 8.03018 5.50523 8.42202 5.62795 8.79034C5.75067 9.15866 5.95748 9.49334 6.232 9.76786C6.50652 10.0424 6.8412 10.2492 7.20952 10.3719C7.57784 10.4946 7.96968 10.5299 8.35399 10.4749Z" fill="#584D6D"/>
<path d="M3.35 5.47C3.17 5.63 2.99733 5.79233 2.832 5.957C2.21097 6.58007 1.65478 7.26458 1.172 8L1.367 8.288C1.702 8.768 2.197 9.408 2.832 10.043C4.121 11.332 5.881 12.5 8 12.5C8.716 12.5 9.39 12.367 10.02 12.14L10.79 12.912C9.91019 13.2973 8.96049 13.4975 8 13.5C3 13.5 0 8 0 8C0 8 0.939 6.279 2.641 4.762L3.349 5.471L3.35 5.47ZM13.646 14.354L1.646 2.354L2.354 1.646L14.354 13.646L13.646 14.354Z" fill="#584D6D"/>
</svg>
