<svg width="115" height="40" viewBox="0 0 115 40" fill="none" xmlns="http://www.w3.org/2000/svg">
<path d="M43.843 34.28V9.72H43.243L43.643 6H49.963C51.083 6 51.9896 6.34667 52.683 7.04C53.3763 7.70667 53.723 8.6 53.723 9.72V18.12C53.723 18.4933 53.6696 18.8533 53.563 19.2C54.203 19.8933 54.523 20.7733 54.523 21.84V30.56C54.523 31.68 54.0963 32.5867 53.243 33.28C52.4163 33.9467 51.443 34.28 50.323 34.28H43.843ZM49.723 9.72H47.643V18.12H49.723C49.8563 18.12 49.923 18.0533 49.923 17.92V9.92C49.923 9.78666 49.8563 9.72 49.723 9.72ZM50.523 21.84H47.643V30.56H50.523C50.6563 30.56 50.723 30.4933 50.723 30.36V22.04C50.723 21.9067 50.6563 21.84 50.523 21.84ZM66.5086 30.44C66.5086 31.56 66.1619 32.4667 65.4686 33.16C64.7753 33.8267 63.8686 34.16 62.7486 34.16H59.8686C58.7486 34.16 57.8419 33.8267 57.1486 33.16C56.4553 32.4667 56.1086 31.56 56.1086 30.44V9.56C56.1086 8.44 56.4553 7.54666 57.1486 6.88C57.8419 6.18666 58.7486 5.84 59.8686 5.84H62.7486C63.8686 5.84 64.7753 6.18666 65.4686 6.88C66.1619 7.54666 66.5086 8.44 66.5086 9.56V30.44ZM60.1086 9.56C59.9753 9.56 59.9086 9.62667 59.9086 9.76V30.24C59.9086 30.3733 59.9753 30.44 60.1086 30.44H62.5086C62.6419 30.44 62.7086 30.3733 62.7086 30.24V9.76C62.7086 9.62667 62.6419 9.56 62.5086 9.56H60.1086ZM78.6961 30.44C78.6961 31.56 78.3494 32.4667 77.6561 33.16C76.9628 33.8267 76.0561 34.16 74.9361 34.16H72.0561C70.9361 34.16 70.0294 33.8267 69.3361 33.16C68.6428 32.4667 68.2961 31.56 68.2961 30.44V9.56C68.2961 8.44 68.6428 7.54666 69.3361 6.88C70.0294 6.18666 70.9361 5.84 72.0561 5.84H74.9361C76.0561 5.84 76.9628 6.18666 77.6561 6.88C78.3494 7.54666 78.6961 8.44 78.6961 9.56V30.44ZM72.2961 9.56C72.1628 9.56 72.0961 9.62667 72.0961 9.76V30.24C72.0961 30.3733 72.1628 30.44 72.2961 30.44H74.6961C74.8294 30.44 74.8961 30.3733 74.8961 30.24V9.76C74.8961 9.62667 74.8294 9.56 74.6961 9.56H72.2961ZM80.4883 34V9.72H79.8883L80.2883 6H84.2883V13.8L87.7683 6H91.9683L86.9283 17.28L92.3683 34H88.1683L84.2883 22.08V34H80.4883ZM102.259 30.28L101.939 34H93.1789V9.72H92.5789L92.9789 6H102.259L101.859 9.72H96.9789V18.12H101.459L101.059 21.84H96.9789V30.28H102.259ZM103.248 9.72L103.648 6H109.968C111.088 6 111.994 6.34667 112.688 7.04C113.381 7.70667 113.728 8.6 113.728 9.72V22.24C113.728 22.8267 113.608 23.36 113.368 23.84C113.128 24.2933 112.808 24.68 112.408 25L114.968 34H111.128L108.848 25.96H107.648V34H103.848V9.72H103.248ZM109.728 9.72H107.648V22.24H109.728C109.861 22.24 109.928 22.1733 109.928 22.04V9.92C109.928 9.78666 109.861 9.72 109.728 9.72Z" fill="#9A60B8"/>
<path d="M5.07656 26V30.24C5.07656 30.3733 5.14323 30.44 5.27656 30.44H6.87656C7.0099 30.44 7.07656 30.3733 7.07656 30.24V23.04L3.91656 21.64C3.67656 21.56 3.34323 21.4267 2.91656 21.24C2.4899 21.0267 2.10323 20.72 1.75656 20.32C1.43656 19.92 1.27656 19.3733 1.27656 18.68V9.56C1.27656 8.44 1.62323 7.54666 2.31656 6.88C3.0099 6.18666 3.91656 5.84 5.03656 5.84H7.11656C8.23656 5.84 9.14323 6.18666 9.83656 6.88C10.5299 7.54666 10.8766 8.44 10.8766 9.56V15.48L7.07656 15.16V9.76C7.07656 9.62667 7.0099 9.56 6.87656 9.56H5.27656C5.14323 9.56 5.07656 9.62667 5.07656 9.76V18.12L8.23656 19.52C8.47656 19.6267 8.8099 19.7733 9.23656 19.96C9.66323 20.1467 10.0366 20.44 10.3566 20.84C10.7032 21.24 10.8766 21.7867 10.8766 22.48V30.44C10.8766 31.56 10.5299 32.4667 9.83656 33.16C9.14323 33.8267 8.23656 34.16 7.11656 34.16H5.03656C3.91656 34.16 3.0099 33.8267 2.31656 33.16C1.62323 32.4667 1.27656 31.56 1.27656 30.44V26H5.07656ZM13.0781 34V9.72H12.4781L12.8781 6H16.8781V13.8L20.3581 6H24.5581L19.5181 17.28L24.9581 34H20.7581L16.8781 22.08V34H13.0781ZM33.8394 21.64V34H30.0394V21.64L25.3594 6H29.1594L31.9594 15.32L34.7194 6H38.5194L33.8394 21.64Z" fill="#5A3070"/>
</svg>
